HIERARCHY
ROOT Hips
{
	OFFSET 0 0 0
	CHANNELS 6 Xposition Yposition Zposition Xrotation Yrotation Zrotation
	JOINT RightHandThumb1
	{
		OFFSET -1.78 -1.1 1.54
		CHANNELS 3 Xrotation Yrotation Zrotation
		JOINT RightHandThumb2
		{
			OFFSET -3.15004 0 0
			CHANNELS 3 Xrotation Yrotation Zrotation
			JOINT RightHandThumb3
			{
				OFFSET -3.52369 0 0
				CHANNELS 3 Xrotation Yrotation Zrotation
				JOINT RightHandThumb4
				{
					OFFSET -2.58404 0 0
					CHANNELS 3 Xrotation Yrotation Zrotation
					End Site
					{
						OFFSET -0 0 0
					}
				}
			}
		}
	}
	JOINT RightHandIndex1
	{
		OFFSET -7.4073 0.785551 3.77204
		CHANNELS 3 Xrotation Yrotation Zrotation
		JOINT RightHandIndex2
		{
			OFFSET -4.08729 0 0
			CHANNELS 3 Xrotation Yrotation Zrotation
			JOINT RightHandIndex3
			{
				OFFSET -1.89986 0 0
				CHANNELS 3 Xrotation Yrotation Zrotation
				JOINT RightHandIndex4
				{
					OFFSET -1.78024 0 0
					CHANNELS 3 Xrotation Yrotation Zrotation
					End Site
					{
						OFFSET -0 0 0
					}
				}
			}
		}
	}
	JOINT RightHandMiddle1
	{
		OFFSET -8.35792 1.13445 0.717983
		CHANNELS 3 Xrotation Yrotation Zrotation
		JOINT RightHandMiddle2
		{
			OFFSET -4.6 0 0
			CHANNELS 3 Xrotation Yrotation Zrotation
			JOINT RightHandMiddle3
			{
				OFFSET -2.13026 0 0
				CHANNELS 3 Xrotation Yrotation Zrotation
				JOINT RightHandMiddle4
				{
					OFFSET -1.56219 0 0
					CHANNELS 3 Xrotation Yrotation Zrotation
					End Site
					{
						OFFSET -0 0 0
					}
				}
			}
		}
	}
	JOINT RightHandRing1
	{
		OFFSET -7.73062 0.64105 -2.07729
		CHANNELS 3 Xrotation Yrotation Zrotation
		JOINT RightHandRing2
		{
			OFFSET -4.33866 0 0
			CHANNELS 3 Xrotation Yrotation Zrotation
			JOINT RightHandRing3
			{
				OFFSET -2.22865 0 0
				CHANNELS 3 Xrotation Yrotation Zrotation
				JOINT RightHandRing4
				{
					OFFSET -1.63434 0 0
					CHANNELS 3 Xrotation Yrotation Zrotation
					End Site
					{
						OFFSET -0 0 0
					}
				}
			}
		}
	}
	JOINT RightHandPinky1
	{
		OFFSET -7.64414 -0.346801 -3.91753
		CHANNELS 3 Xrotation Yrotation Zrotation
		JOINT RightHandPinky2
		{
			OFFSET -2.756 0 0
			CHANNELS 3 Xrotation Yrotation Zrotation
			JOINT RightHandPinky3
			{
				OFFSET -2.1983 0 0
				CHANNELS 3 Xrotation Yrotation Zrotation
				JOINT RightHandPinky4
				{
					OFFSET -1.30207 0 0
					CHANNELS 3 Xrotation Yrotation Zrotation
					End Site
					{
						OFFSET -0 0 0
					}
				}
			}
		}
	}
}
MOTION
Frames: 20
Frame Time: 0.00833333
-12.29332123 25.23416901 17.5662262 107.85518304 50.56261101 -93.27784219 -43.57138944 32.41656968 45.46557128 0.00000004 -13.59892506 0.00000037 0.00000009 19.50072106 -0.00000054 0 -0 -0 -4.03058651 12.06776464 5.09633254 -0 0 -0.63519197 -0 0 -7.90161319 -0 0 0 3.09154358 -3.88883395 -7.62290764 -0 0 -0.27200008 -0 0 -13.32289854 -0 0 0 3.93805561 -14.01273409 -8.23386457 -0 0 -0.90389452 -0 0 -19.94840275 -0 0 0 -0.77966046 -24.04565393 -7.46800148 -0 0 -0.79637546 -0 0 -21.88018857 -0 0 0
-12.29030838 25.22228546 17.56629333 107.81914633 50.33114824 -93.08292769 -43.59212989 32.40085787 45.42449985 0.00000004 -13.52330014 0.00000037 0.00000009 19.51542589 -0.00000054 0 0 -0 -3.92390167 12.14731024 5.019877 -0 0 -0.60888409 -0 0 -7.90167792 -0 0 0 3.21880937 -3.85108096 -7.72973449 -0 0 -0.22880465 -0 0 -13.36544696 -0 0 0 4.08422696 -13.97744561 -8.417771 -0 0 -0.87122277 -0 0 -19.97058328 -0 0 0 -0.68640149 -24.01399932 -7.58162192 -0 0 -0.8147535 -0 0 -21.93917304 -0 0 0
-12.29117355 25.2202713 17.56787567 107.87861581 50.09698107 -92.94671883 -43.60964056 32.38575929 45.33917364 0.00000004 -13.49213931 0.00000037 0.00000009 19.53013071 -0.00000054 -0 -0 0 -3.84658984 12.14547634 4.95410549 -0 0 -0.58767404 -0 0 -7.89697546 -0 0 0 3.31288479 -3.87553696 -7.79033984 -0 0 -0.23825656 -0 0 -13.30898905 -0 0 0 4.19759844 -14.01091046 -8.55444351 -0 0 -0.77131465 -0 0 -19.94255852 -0 0 0 -0.60221254 -24.03422137 -7.61829526 -0 0 -0.69192708 -0 0 -22.10255437 -0 0 0
-12.28647079 25.23285522 17.56748657 107.94572421 49.84699699 -92.68033053 -43.60924583 32.38153633 45.17497417 0.00000004 -13.41457125 0.00000037 0.00000009 19.54596685 -0.00000055 -0 -0 -0 -3.7975858 12.11289113 4.77093237 -0 0 -0.55712892 -0 0 -7.90461693 -0 0 0 3.33691911 -3.90740082 -7.95351066 -0 0 -0.2388402 -0 0 -13.2761368 -0 0 0 4.21765344 -14.04243336 -8.77358494 -0 0 -0.63421907 -0 0 -19.9520096 -0 0 0 -0.60624538 -24.04540429 -7.75921194 -0 0 -0.7596828 -0 0 -22.05942969 -0 0 0
-12.28705902 25.22520447 17.57043304 107.88075651 49.57487666 -92.51278294 -43.66079451 32.33064826 45.07037445 0.00000004 -13.29451021 0.00000036 0.00000009 19.56126289 -0.00000055 -0 0 0 -3.86326748 12.14174002 4.80214521 -0 0 -0.54747668 -0 0 -7.88325961 -0 0 0 3.29967403 -3.85827852 -7.94027311 -0 0 -0.29735018 -0 0 -13.18560179 -0 0 0 4.20282437 -13.98023537 -8.79524233 -0 0 -0.6240072 -0 0 -19.85290091 -0 0 0 -0.58635513 -23.97210114 -7.66912121 -0 0 -0.83523843 -0 0 -21.99825377 -0 0 0
-12.29750137 25.21827545 17.57869415 107.94138478 49.47258514 -92.44464686 -43.70484272 32.28632129 44.9939961 0.00000004 -13.33720534 0.00000036 0.00000009 19.56814625 -0.00000055 0 0 -0 -3.81151777 12.09924282 4.8119223 -0 0 -0.55223681 -0 0 -7.87907992 -0 0 0 3.38142405 -3.8825489 -7.9295657 -0 0 -0.25112688 -0 0 -13.20401264 -0 0 0 4.31232355 -13.99660745 -8.82401758 -0 0 -0.59065155 -0 0 -19.79564879 -0 0 0 -0.44068303 -23.96640087 -7.58255976 -0 0 -0.82522749 -0 0 -22.0071007 -0 0 0
-12.31917343 25.21422577 17.59030609 108.05779815 49.38240786 -92.44261917 -43.75376517 32.23724405 44.92637697 0.00000004 -13.42736321 0.00000037 0.00000009 19.56596557 -0.00000055 -0 -0 -0 -3.80546765 12.02748523 4.79432653 -0 0 -0.56264501 -0 0 -7.90019866 -0 0 0 3.42739016 -3.93762089 -7.91227125 -0 0 -0.20438212 -0 0 -13.23480466 -0 0 0 4.3914434 -14.03351693 -8.84519343 -0 0 -0.58644571 -0 0 -19.71006595 -0 0 0 -0.32025988 -23.99491013 -7.50543497 -0 0 -0.83366652 -0 0 -22.00089632 -0 0 0
-12.33790283 25.20490875 17.60071869 108.08367675 49.35283574 -92.42303171 -43.78326558 32.20571474 44.90083339 0.00000004 -13.5089647 0.00000037 0.00000009 19.55793354 -0.00000055 -0 0 -0 -3.76950527 12.01987676 4.79083941 -0 0 -0.56030502 -0 0 -7.93508143 -0 0 0 3.49719831 -3.93107991 -7.89767803 -0 0 -0.21817969 -0 0 -13.21195357 -0 0 0 4.49095704 -14.01542076 -8.86436023 -0 0 -0.6079384 -0 0 -19.61026885 -0 0 0 -0.18151812 -23.98940861 -7.43837826 -0 0 -0.8201851 -0 0 -22.03533627 -0 0 0
-12.34922028 25.20229187 17.60766449 108.03864688 49.27555363 -92.25984739 -43.78053817 32.20245494 44.85958396 0.00000004 -13.48516347 0.00000037 0.00000009 19.53674229 -0.00000054 -0 0 0 -3.75543269 12.06184149 4.6700208 -0 0 -0.54856745 -0 0 -7.96363892 -0 0 0 3.49378399 -3.90396458 -8.04348352 -0 0 -0.21579581 -0 0 -13.20133458 -0 0 0 4.47168824 -14.00813345 -9.05888392 -0 0 -0.62891103 -0 0 -19.52067203 -0 0 0 -0.21924365 -23.98661431 -7.57802983 -0 0 -0.81569273 -0 0 -22.05799975 -0 0 0
-12.35977859 25.1967392 17.61325378 107.92899849 49.13430633 -92.13477311 -43.78248664 32.19509036 44.84618365 0.00000004 -13.34310102 0.00000036 0.00000009 19.50228414 -0.00000054 -0 0 0 -3.80400142 12.13953628 4.62121309 -0 0 -0.53315562 -0 0 -7.97410565 -0 0 0 3.43845692 -3.83174484 -8.14966188 -0 0 -0.23304641 -0 0 -13.14544956 -0 0 0 4.39911216 -13.96911879 -9.21721892 -0 0 -0.63738455 -0 0 -19.44892049 -0 0 0 -0.32431527 -23.96183624 -7.69080734 -0 0 -0.85926732 -0 0 -22.04001125 -0 0 0
-12.38020935 25.18780365 17.61893616 107.87007768 48.97831141 -92.12997678 -43.80767545 32.16715606 44.85345726 0.00000004 -13.23200884 0.00000036 0.00000009 19.46377688 -0.00000054 -0 0 0 -3.86885158 12.18039924 4.64333744 -0 0 -0.52997706 -0 0 -7.9781712 -0 0 0 3.38724516 -3.76453877 -8.17671437 -0 0 -0.27557912 -0 0 -13.05161024 -0 0 0 4.34852897 -13.94056084 -9.28387476 -0 0 -0.60522107 -0 0 -19.43655696 -0 0 0 -0.39023557 -23.95609291 -7.73287826 -0 0 -0.79380317 -0 0 -22.1295645 -0 0 0
-12.39431458 25.18527679 17.6221283 107.8725413 48.93523683 -92.11569276 -43.81059242 32.15948609 44.84523619 0.00000004 -13.23363213 0.00000036 0.00000009 19.42885057 -0.00000054 0 -0 -0 -3.8161191 12.18469591 4.60006686 -0 0 -0.52631921 -0 0 -7.97680863 -0 0 0 3.43606074 -3.72726498 -8.24152866 -0 0 -0.22954361 -0 0 -13.05522191 -0 0 0 4.40875071 -13.92253142 -9.3867842 -0 0 -0.57037385 -0 0 -19.42160402 -0 0 0 -0.34169655 -23.96795903 -7.81487761 -0 0 -0.75130038 -0 0 -22.19872866 -0 0 0
-12.40333328 25.19226837 17.62206421 107.83201858 48.85083652 -91.97693772 -43.79209754 32.16832461 44.77832303 0.00000004 -13.13323939 0.00000036 0.00000009 19.40691948 -0.00000054 0 0 0 -3.82411525 12.21220083 4.46814361 -0 0 -0.51546321 -0 0 -7.97436514 -0 0 0 3.40464355 -3.68357604 -8.37981589 -0 0 -0.17454874 -0 0 -13.08583641 -0 0 0 4.38589593 -13.86820743 -9.57071558 -0 0 -0.52762742 -0 0 -19.39498319 -0 0 0 -0.39739823 -23.93479044 -7.96412512 -0 0 -0.78469475 -0 0 -22.17198614 -0 0 0
-12.41795044 25.20063629 17.62295227 107.88044914 48.80178913 -91.93895519 -43.78053447 32.16978809 44.67484217 0.00000004 -13.07008907 0.00000036 0.00000009 19.37708553 -0.00000054 -0 -0 -0 -3.8609504 12.1793613 4.37605322 -0 0 -0.50302307 -0 0 -7.9594528 -0 0 0 3.36434264 -3.68876521 -8.45940314 -0 0 -0.17552538 -0 0 -13.04003708 -0 0 0 4.35605659 -13.8680973 -9.69846201 -0 0 -0.49991248 -0 0 -19.33781884 -0 0 0 -0.4358838 -23.94348867 -8.03344188 -0 0 -0.78225324 -0 0 -22.16884764 -0 0 0
-12.43107681 25.21273041 17.62250824 107.90914241 48.76238685 -91.85646484 -43.77380585 32.16665482 44.5333786 0.00000004 -12.9841436 0.00000035 0.00000009 19.34290606 -0.00000054 -0 0 -0 -3.9294231 12.1553506 4.26313359 -0 0 -0.49674543 -0 0 -7.93481853 -0 0 0 3.2906284 -3.67295154 -8.53761907 -0 0 -0.20092565 -0 0 -12.96392951 -0 0 0 4.28378112 -13.84932203 -9.81347425 -0 0 -0.44709858 -0 0 -19.30619733 -0 0 0 -0.49566388 -23.91450872 -8.06362707 -0 0 -0.79606661 -0 0 -22.14211816 -0 0 0
-12.44167633 25.21852875 17.62321167 107.90649349 48.74605438 -91.80497922 -43.78610061 32.14896216 44.4085044 0.00000004 -12.92166766 0.00000035 0.00000009 19.3165447 -0.00000054 0 0 0 -4.01277856 12.13768142 4.22408558 -0 0 -0.48165627 -0 0 -7.9105699 -0 0 0 3.2052156 -3.63913152 -8.55467032 -0 0 -0.23322346 -0 0 -12.88304962 -0 0 0 4.21207788 -13.78807742 -9.86654935 -0 0 -0.43442544 -0 0 -19.20285859 -0 0 0 -0.53796294 -23.84050806 -8.00757049 -0 0 -0.80222246 -0 0 -22.09701207 -0 0 0
-12.45504684 25.21968384 17.6231842 107.92982343 48.75080167 -91.8184105 -43.81277697 32.11953834 44.31958043 0.00000004 -12.90705028 0.00000035 0.00000009 19.27811742 -0.00000054 0 -0 0 -4.07819345 12.10465739 4.22421787 -0 0 -0.47060519 -0 0 -7.86937246 -0 0 0 3.13824125 -3.63268848 -8.54766689 -0 0 -0.22928294 -0 0 -12.84935651 -0 0 0 4.15360687 -13.75361058 -9.88183452 -0 0 -0.43540199 -0 0 -19.1254305 -0 0 0 -0.55619563 -23.79943719 -7.93037611 -0 0 -0.80460148 -0 0 -22.069736 -0 0 0
-12.46477585 25.22115021 17.6215683 107.95897294 48.79680421 -91.82537179 -43.82489146 32.10407818 44.25143249 0.00000004 -12.95848349 0.00000035 0.00000009 19.24311552 -0.00000054 -0 0 0 -4.07085724 12.05696758 4.19868306 -0 0 -0.46637114 -0 0 -7.831933 -0 0 0 3.13456838 -3.63999589 -8.57534888 -0 0 -0.2115619 -0 0 -12.83305129 -0 0 0 4.14646092 -13.75690568 -9.93899655 -0 0 -0.47481647 -0 0 -19.01678764 -0 0 0 -0.55906418 -23.80294067 -7.92538924 -0 0 -0.79066927 -0 0 -22.07017403 -0 0 0
-12.47256393 25.22113647 17.6199295 107.9574378 48.79516375 -91.82880686 -43.83297992 32.09235032 44.20368128 0.00000004 -13.02256806 0.00000036 0.00000009 19.20185643 -0.00000053 0 -0 0 -4.07830355 12.02833939 4.18292452 -0 0 -0.46250294 -0 0 -7.80074395 -0 0 0 3.11818225 -3.64140142 -8.60871493 -0 0 -0.2002443 -0 0 -12.8156158 -0 0 0 4.11837886 -13.76065001 -10.00750784 -0 0 -0.49363804 -0 0 -18.93221372 -0 0 0 -0.58999187 -23.80548111 -7.93982442 -0 0 -0.80709522 -0 0 -22.04529133 -0 0 0
-12.47926025 25.21990662 17.61821289 107.95420105 48.78556288 -91.84274579 -43.83422724 32.08741829 44.17416223 0.00000004 -13.12590755 0.00000036 0.00000009 19.15916288 -0.00000053 0 0 -0 -4.05757892 12.01293055 4.17024335 -0 0 -0.45571799 -0 0 -7.77770465 -0 0 0 3.12344585 -3.65613288 -8.65427277 -0 0 -0.14923595 -0 0 -12.8493616 -0 0 0 4.11738346 -13.7515619 -10.07057372 -0 0 -0.4164763 -0 0 -18.96438301 -0 0 0 -0.60310303 -23.80084748 -7.96717686 -0 0 -0.80552961 -0 0 -22.03488185 -0 0 0
